<?xml version="1.0" standalone="no"?>
<!DOCTYPE svg PUBLIC "-//W3C//DTD SVG 20010904//EN"
 "http://www.w3.org/TR/2001/REC-SVG-20010904/DTD/svg10.dtd">
<svg version="1.0" xmlns="http://www.w3.org/2000/svg"
 width="1775.000000pt" height="686.000000pt" viewBox="0 0 1775.000000 686.000000"
 preserveAspectRatio="xMidYMid meet">

<g transform="translate(0.000000,686.000000) scale(0.100000,-0.100000)"
fill="#000000" stroke="none">
<path d="M8127 4210 c-294 -47 -518 -229 -626 -510 -49 -125 -62 -209 -68
-411 -6 -208 4 -312 43 -447 84 -292 269 -482 545 -563 105 -30 325 -38 439
-15 454 92 694 472 666 1050 -15 306 -95 515 -261 681 -143 143 -321 213 -555
220 -69 2 -151 0 -183 -5z m259 -421 c86 -41 149 -140 181 -281 25 -110 25
-445 -1 -553 -38 -165 -107 -260 -212 -291 -137 -40 -266 27 -329 171 -45 100
-58 194 -58 400 0 201 10 273 54 390 26 70 105 155 159 172 61 19 159 15 206
-8z"/>
<path d="M16563 4206 c-182 -35 -306 -98 -423 -216 -179 -179 -260 -413 -260
-750 0 -304 60 -520 195 -698 88 -117 240 -217 395 -262 96 -28 307 -38 418
-20 346 56 583 294 665 670 30 138 30 472 0 610 -63 287 -205 483 -428 590
-55 27 -129 56 -165 65 -90 22 -306 28 -397 11z m265 -411 c87 -37 155 -139
189 -285 26 -109 26 -452 0 -562 -24 -102 -69 -190 -120 -233 -41 -35 -117
-65 -167 -65 -50 0 -126 30 -168 66 -48 41 -95 125 -117 211 -38 141 -37 470
1 615 46 178 140 268 282 268 34 0 79 -7 100 -15z"/>
<path d="M5115 4196 c-307 -48 -510 -228 -546 -483 -39 -275 100 -457 489
-639 251 -118 309 -152 343 -208 38 -60 9 -140 -64 -178 -118 -60 -323 -13
-524 119 -32 21 -63 41 -70 46 -8 5 -54 -52 -137 -167 -69 -96 -126 -178 -126
-183 0 -12 91 -70 180 -115 266 -135 630 -167 884 -79 201 71 348 222 391 402
41 176 0 330 -122 460 -82 87 -172 144 -416 265 -210 103 -278 151 -297 209
-10 30 -9 41 7 72 24 48 56 71 122 83 111 21 274 -28 415 -125 21 -14 42 -23
46 -18 4 4 65 82 134 173 l127 165 -28 23 c-47 38 -193 109 -283 137 -167 52
-357 67 -525 41z"/>
<path d="M14863 4195 c-362 -66 -619 -301 -709 -650 -47 -183 -44 -464 6 -660
75 -293 300 -518 594 -594 273 -71 570 -36 869 101 l67 31 0 488 0 489 -375 0
-375 0 0 -185 0 -185 130 0 130 0 0 -175 c0 -201 7 -186 -102 -200 -113 -14
-237 32 -309 114 -92 104 -129 237 -129 459 0 225 38 347 140 452 138 142 398
150 563 19 20 -17 41 -28 46 -25 11 7 251 334 257 350 6 17 -153 99 -261 135
-49 16 -125 34 -168 40 -103 14 -284 12 -374 -4z"/>
<path d="M11111 4003 c-135 -423 -541 -1713 -541 -1718 0 -3 118 -4 262 -3
l261 3 34 120 c18 66 40 144 48 173 l16 52 259 0 259 0 20 -67 c11 -38 32
-113 47 -168 15 -55 30 -103 34 -108 3 -4 126 -6 272 -5 l266 3 -302 950 -302
950 -286 3 -287 2 -60 -187z m418 -715 c41 -150 76 -279 78 -285 4 -10 -31
-13 -157 -13 -130 0 -161 3 -157 13 3 7 38 136 78 285 40 150 76 272 79 272 4
0 39 -123 79 -272z"/>
<path d="M5990 3975 l0 -205 215 0 215 0 0 -745 0 -745 265 0 265 0 0 745 0
745 210 0 210 0 0 205 0 205 -690 0 -690 0 0 -205z"/>
<path d="M9340 3230 l0 -950 590 0 590 0 0 205 0 205 -325 0 -325 0 0 745 0
745 -265 0 -265 0 0 -950z"/>
<path d="M12480 3230 l0 -950 265 0 265 0 0 305 0 305 60 0 61 0 151 -305 152
-305 288 0 c158 0 288 3 288 6 0 3 -83 163 -185 355 -102 192 -185 353 -185
358 0 4 26 24 59 44 119 74 211 198 246 333 20 77 20 271 0 349 -49 190 -167
317 -366 392 -153 57 -214 63 -680 63 l-419 0 0 -950z m830 524 c38 -22 64
-46 85 -79 28 -45 30 -55 30 -149 0 -84 -4 -108 -22 -141 -49 -93 -121 -127
-280 -133 l-113 -5 0 273 0 272 123 -3 c115 -4 125 -6 177 -35z"/>
</g>
</svg>
